<?xml version="1.0" encoding="UTF-8"?>
<svg width="321px" height="71px" viewBox="0 0 321 71" version="1.1" xmlns="http://www.w3.org/2000/svg" xmlns:xlink="http://www.w3.org/1999/xlink">
    <!-- Generator: Sketch 43.2 (39069) - http://www.bohemiancoding.com/sketch -->
    <title>ProofStrategiesLogo_20180124</title>
    <desc>Created with Sketch.</desc>
    <defs>
        <polygon id="path-1" points="38.113 57.94 0.06 57.94 0.06 0.951 38.113 0.951 38.113 57.94"></polygon>
    </defs>
    <g id="Page-1" stroke="none" stroke-width="1" fill="none" fill-rule="evenodd">
        <g id="ProofStrategiesLogo_20180124">
            <g id="Group-3" transform="translate(0.000000, 13.000000)">
                <mask id="mask-2" fill="white">
                    <use xlink:href="#path-1"></use>
                </mask>
                <g id="Clip-2"></g>
                <path d="M19.057,31.238 C13.09,31.238 8.198,26.56 7.848,20.68 C7.835,20.458 7.826,20.233 7.826,20.007 C7.826,19.781 7.835,19.557 7.848,19.334 C8.198,13.454 13.09,8.776 19.057,8.776 C25.249,8.776 30.287,13.815 30.287,20.007 C30.287,26.2 25.249,31.238 19.057,31.238 Z M19.057,0.951 C14.869,0.951 10.996,2.312 7.848,4.609 L7.848,1.099 L0.022,1.099 L0.022,19.141 C0.009,19.428 0,19.716 0,20.007 C0,20.298 0.009,20.586 0.022,20.874 L0.022,58 L7.848,58 L7.848,35.405 C10.996,37.703 14.869,39.064 19.057,39.064 C29.564,39.064 38.113,30.515 38.113,20.007 C38.113,9.5 29.564,0.951 19.057,0.951 L19.057,0.951 Z" id="Fill-1" fill="#FFFFFF" mask="url(#mask-2)"></path>
            </g>
            <path d="M66.914,16.207 L66.81,16.146 C61.448,13.051 54.81,13.199 49.606,16.449 L49.606,14.099 L41.78,14.099 L41.78,52.203 L49.606,52.203 L49.606,31.871 L49.681,29.077 C49.735,27.096 51.081,24.972 53.282,23.395 C55.784,21.602 59.026,21.254 61.826,22.401 C63.121,20.028 64.854,17.927 66.914,16.207" id="Fill-4" fill="#FFFFFF"></path>
            <path d="M123.769,44.238 C117.576,44.238 112.538,39.2 112.538,33.007 C112.538,26.815 117.576,21.776 123.769,21.776 C129.962,21.776 135,26.815 135,33.007 C135,39.2 129.962,44.238 123.769,44.238 Z M123.769,13.951 C113.262,13.951 104.713,22.499 104.713,33.007 C104.713,43.515 113.262,52.064 123.769,52.064 C134.277,52.064 142.826,43.515 142.826,33.007 C142.826,22.499 134.277,13.951 123.769,13.951 L123.769,13.951 Z" id="Fill-5" fill="#FFFFFF"></path>
            <path d="M175.759,2.873 C170.091,-0.399 162.992,-0.051 157.673,3.76 C153.431,6.8 150.929,11.114 150.807,15.593 L150.801,15.852 L144.007,15.852 L144.007,23.678 L150.409,23.678 L150.409,52.203 L158.236,52.203 L158.236,23.678 L167.113,23.678 C167.042,22.971 167.005,22.254 167.005,21.528 C167.005,19.562 167.276,17.66 167.774,15.852 L158.629,15.852 L158.631,15.804 C158.684,13.823 160.031,11.699 162.232,10.122 C164.78,8.296 168.093,7.971 170.929,9.195 C172.526,6.941 174.547,5.011 176.878,3.519 L175.759,2.873" id="Fill-7" fill="#FFFFFF"></path>
            <path d="M82.285,44.238 C78.3,44.238 74.796,42.149 72.802,39.01 C71.698,37.273 71.055,35.215 71.055,33.007 C71.055,26.815 76.093,21.776 82.285,21.776 C84.593,21.776 86.74,22.477 88.526,23.675 C91.532,25.692 93.516,29.122 93.516,33.007 C93.516,39.2 88.478,44.238 82.285,44.238 Z M79.091,14.224 C75.284,14.869 71.861,16.647 69.175,19.197 C67.575,20.717 66.238,22.51 65.24,24.502 C64.286,26.406 63.643,28.49 63.375,30.69 C63.283,31.45 63.229,32.222 63.229,33.007 C63.229,43.515 71.778,52.064 82.285,52.064 C92.793,52.064 101.342,43.515 101.342,33.007 C101.342,22.5 92.793,13.951 82.285,13.951 C81.197,13.951 80.131,14.048 79.091,14.224 Z" id="Fill-9" fill="#FFFFFF"></path>
            <path d="M190.738,26.368 C190.738,25.27 189.746,24.869 187.804,24.342 C185.905,23.814 183.71,22.97 183.71,20.374 C183.71,18.032 185.504,16.47 188.438,16.47 C190.231,16.47 191.708,16.913 192.975,17.631 L192.342,19.804 C191.181,19.108 189.704,18.665 188.459,18.665 C186.918,18.665 186.242,19.319 186.242,20.227 C186.242,21.303 187.424,21.725 189.24,22.211 C191.224,22.759 193.27,23.667 193.27,26.178 C193.27,28.584 191.35,30.293 188.248,30.293 C186.496,30.293 184.744,29.829 183.499,29.069 L184.09,26.853 C185.315,27.592 186.707,28.12 188.29,28.12 C189.725,28.12 190.738,27.423 190.738,26.368" id="Fill-10" fill="#FFFFFF"></path>
            <polyline id="Fill-11" fill="#FFFFFF" points="204.046 19.045 204.046 29.977 201.492 29.977 201.492 19.045 197.081 19.045 197.081 16.786 208.457 16.786 208.457 19.045 204.046 19.045"></polyline>
            <path d="M217.692,23.202 C219.275,23.118 220.309,22.4 220.309,20.965 C220.309,19.593 219.275,18.939 217.439,18.939 L215.771,18.939 L215.771,23.244 L217.692,23.202 Z M215.792,29.977 L213.218,29.977 L213.218,16.786 L217.84,16.786 C221.174,16.786 222.947,18.369 222.947,20.797 C222.947,22.674 221.892,23.983 220.098,24.595 L223.559,29.977 L220.625,29.977 L217.692,25.144 L215.792,25.27 L215.792,29.977 L215.792,29.977 Z" id="Fill-12" fill="#FFFFFF"></path>
            <path d="M233.068,19.003 L231.063,24.722 L235.052,24.722 L233.068,19.003 Z M239.4,29.977 L236.804,29.977 L235.706,26.853 L230.388,26.853 L229.312,29.977 L226.715,29.977 L231.528,16.786 L234.651,16.786 L239.4,29.977 L239.4,29.977 Z" id="Fill-13" fill="#FFFFFF"></path>
            <polyline id="Fill-14" fill="#FFFFFF" points="248.465 19.045 248.465 29.977 245.912 29.977 245.912 19.045 241.501 19.045 241.501 16.786 252.876 16.786 252.876 19.045 248.465 19.045"></polyline>
            <polyline id="Fill-15" fill="#FFFFFF" points="257.638 29.977 257.638 16.786 266.628 16.786 266.628 18.96 260.17 18.96 260.17 22.274 265.467 22.274 265.467 24.447 260.17 24.447 260.17 27.803 266.628 27.803 266.628 29.977 257.638 29.977"></polyline>
            <polygon id="Fill-16" fill="#FFFFFF" points="288.616 29.977 291.17 29.977 291.17 16.786 288.616 16.786"></polygon>
            <polyline id="Fill-17" fill="#FFFFFF" points="297.049 29.977 297.049 16.786 306.04 16.786 306.04 18.96 299.581 18.96 299.581 22.274 304.879 22.274 304.879 24.447 299.581 24.447 299.581 27.803 306.04 27.803 306.04 29.977 297.049 29.977"></polyline>
            <path d="M317.744,26.368 C317.744,25.27 316.751,24.869 314.811,24.342 C312.911,23.814 310.716,22.97 310.716,20.374 C310.716,18.032 312.51,16.47 315.444,16.47 C317.238,16.47 318.715,16.913 319.981,17.631 L319.348,19.804 C318.187,19.108 316.709,18.665 315.464,18.665 C313.924,18.665 313.249,19.319 313.249,20.227 C313.249,21.303 314.431,21.725 316.245,22.211 C318.229,22.759 320.277,23.667 320.277,26.178 C320.277,28.584 318.356,30.293 315.253,30.293 C313.502,30.293 311.75,29.829 310.505,29.069 L311.096,26.853 C312.32,27.592 313.712,28.12 315.295,28.12 C316.731,28.12 317.744,27.423 317.744,26.368" id="Fill-18" fill="#FFFFFF"></path>
            <path d="M277.771,22.848 L277.771,25.079 L280.952,25.079 C280.824,25.835 280.429,26.498 279.778,27.055 C279.056,27.665 278.234,27.974 277.332,27.974 C276.267,27.974 275.26,27.557 274.343,26.734 C273.364,25.851 272.867,24.71 272.867,23.343 C272.867,22.015 273.313,20.898 274.194,20.018 C275.073,19.123 276.176,18.67 277.475,18.67 C278.916,18.67 280.16,19.352 281.171,20.697 L281.309,20.881 L282.997,19.263 L282.869,19.117 C282.05,18.178 281.201,17.488 280.345,17.067 C279.45,16.644 278.473,16.43 277.442,16.43 C275.523,16.43 273.869,17.109 272.531,18.448 C271.192,19.781 270.512,21.428 270.512,23.343 C270.512,25.218 271.179,26.847 272.496,28.186 C273.813,29.52 275.417,30.197 277.265,30.197 C279.162,30.197 280.747,29.495 281.977,28.111 C282.521,27.493 282.913,26.818 283.145,26.103 C283.376,25.342 283.494,24.458 283.494,23.476 L283.494,22.848 L277.771,22.848" id="Fill-19" fill="#FFFFFF"></path>
        </g>
    </g>
</svg>